<svg xmlns="http://www.w3.org/2000/svg" xmlns:xlink="http://www.w3.org/1999/xlink" width="549" height="179" viewBox="0 0 549 179">
  <defs>
    <linearGradient id="linear-gradient" x1="0.5" y1="-0.427" x2="0.5" y2="0.913" gradientUnits="objectBoundingBox">
      <stop offset="0" stop-color="#f67a3a"/>
      <stop offset="1" stop-color="#e54043"/>
    </linearGradient>
    <linearGradient id="linear-gradient-2" x1="0.932" y1="0.758" x2="-0.235" y2="0.061" gradientUnits="objectBoundingBox">
      <stop offset="0" stop-color="#231f20"/>
      <stop offset="1" stop-color="#231f20"/>
    </linearGradient>
    <linearGradient id="linear-gradient-3" x1="1.06" y1="-0.085" x2="-0.119" y2="1.147" gradientUnits="objectBoundingBox">
      <stop offset="0" stop-color="#f77d39"/>
      <stop offset="1" stop-color="#e54043"/>
    </linearGradient>
    <linearGradient id="linear-gradient-4" x1="0.866" y1="0.079" x2="0.066" y2="0.999" gradientUnits="objectBoundingBox">
      <stop offset="0" stop-color="#f77d39"/>
      <stop offset="1" stop-color="#e43f43"/>
    </linearGradient>
    <linearGradient id="linear-gradient-5" x1="1.318" y1="0.601" x2="0.752" y2="2.95" gradientUnits="objectBoundingBox">
      <stop offset="0" stop-color="#fff"/>
      <stop offset="1"/>
    </linearGradient>
    <linearGradient id="linear-gradient-6" x1="1" y1="0.5" x2="0" y2="0.5" gradientUnits="objectBoundingBox">
      <stop offset="0" stop-color="#f1f2f2"/>
      <stop offset="1" stop-color="#f1f2f2"/>
    </linearGradient>
    <linearGradient id="linear-gradient-7" x1="2.922" y1="1.414" x2="2.538" y2="3.32" xlink:href="#linear-gradient-5"/>
    <linearGradient id="linear-gradient-8" x1="2.88" y1="3.646" x2="2.192" y2="6.195" xlink:href="#linear-gradient-5"/>
    <linearGradient id="linear-gradient-9" x1="0.5" y1="0.048" x2="0.5" y2="1.115" gradientUnits="objectBoundingBox">
      <stop offset="0" stop-color="#f77e39"/>
      <stop offset="1" stop-color="#e54043"/>
    </linearGradient>
  </defs>
  <g id="Group_40217" data-name="Group 40217" transform="translate(16800 11136)">
    <rect id="Rectangle_6094" data-name="Rectangle 6094" width="549" height="178" transform="translate(-16800 -11136)" fill="none"/>
    <g id="Group_40216" data-name="Group 40216" transform="translate(-16788.875 -11132.29)">
      <path id="Path_74095" data-name="Path 74095" d="M30-9.987a18.885,18.885,0,0,1,3.633-3.4,5.392,5.392,0,0,1,2.91-.932,5.412,5.412,0,0,1,3.975,1.712,5.547,5.547,0,0,1,1.693,4.032,6.665,6.665,0,0,1-.78,3.024,13.374,13.374,0,0,1-2.415,3.214L25.4,11.847,42.29,30.22a15.266,15.266,0,0,1,2.377,3.328,6.566,6.566,0,0,1,.818,2.91,5.525,5.525,0,0,1-1.788,4.07,5.624,5.624,0,0,1-4.032,1.75,5.551,5.551,0,0,1-2.853-.78,21.141,21.141,0,0,1-3.956-3.633l-18.9-20.883V33.339q0,4.527-1.56,6.733a5.431,5.431,0,0,1-4.755,2.206,5.431,5.431,0,0,1-4.755-2.206q-1.56-2.206-1.56-6.733V-5.536q0-4.527,1.56-6.752a5.414,5.414,0,0,1,4.755-2.225,5.414,5.414,0,0,1,4.755,2.225q1.56,2.225,1.56,6.752V8.157ZM49.327,17.819V-5.536q0-4.527,1.56-6.752a5.414,5.414,0,0,1,4.755-2.225A5.414,5.414,0,0,1,60.4-12.288q1.56,2.225,1.56,6.752V16.412q0,7.341,2.8,11.05T73.1,31.17q5.516,0,8.33-3.709t2.815-11.05V-5.536q0-4.527,1.56-6.752a5.375,5.375,0,0,1,4.717-2.225,5.414,5.414,0,0,1,4.755,2.225q1.56,2.225,1.56,6.752V17.819q0,12.058-6.276,18.734T73.1,43.229q-11.221,0-17.5-6.676T49.327,17.819Zm80.07,16.7a10.852,10.852,0,0,1-3.271,5.763,8.661,8.661,0,0,1-5.858,2,7.811,7.811,0,0,1-5.611-1.9q-2-1.9-3.024-6.428L102.428-6.107q-.076-.456-.114-1.027t-.038-1.75a5.255,5.255,0,0,1,1.769-4.146,6.731,6.731,0,0,1,4.622-1.56,5.782,5.782,0,0,1,4.032,1.445,6.91,6.91,0,0,1,2.054,4.108l6.619,35.185,9.205-35.337a6.958,6.958,0,0,1,2.453-3.994,7.354,7.354,0,0,1,4.546-1.331,6.924,6.924,0,0,1,4.431,1.369,7.284,7.284,0,0,1,2.415,4.108l9.053,35.185L160.094-8.2a9.129,9.129,0,0,1,2.149-4.831,5.779,5.779,0,0,1,4.241-1.483,6.269,6.269,0,0,1,4.488,1.655,5.534,5.534,0,0,1,1.75,4.2,13.338,13.338,0,0,1-.133,1.807q-.133.97-.361,1.921l-9.662,38.875q-1.217,5.021-3.081,6.676t-5.63,1.655a8.2,8.2,0,0,1-5.458-1.712,9.922,9.922,0,0,1-2.948-5.363l-8.254-31.61ZM190.486,7.777h5.287A6.667,6.667,0,0,0,200.3,6.294a4.889,4.889,0,0,0,1.712-3.88,4.991,4.991,0,0,0-1.731-3.994,6.919,6.919,0,0,0-4.66-1.483h-5.135Zm0,22.975H196.8q4.184,0,6.371-1.6a5.39,5.39,0,0,0,2.187-4.641,5.344,5.344,0,0,0-2.149-4.679q-2.149-1.522-6.638-1.522h-6.086Zm-4.07,10.841q-4.907,0-6.733-1.674t-1.826-6.276V-4.928q0-5.059,1.94-6.961t6.771-1.9h10.384q8.216,0,12.743,3.633T214.222-.021a12.444,12.444,0,0,1-1.674,6.733,11.1,11.1,0,0,1-5.173,4.184,14.7,14.7,0,0,1,8.33,4.964,14.111,14.111,0,0,1,2.891,9.072q0,7.836-5.192,12.248t-14.512,4.412Zm50.439-27.5q0,7.76,3.69,12.419a12.584,12.584,0,0,0,19.552,0q3.69-4.66,3.69-12.419,0-8.026-3.652-12.743a12.568,12.568,0,0,0-19.628,0Q236.855,6.065,236.855,14.091Zm-13.732-.152q0-13.123,7.513-21.206T250.32-15.35q12.21,0,19.742,8.1t7.532,21.187q0,13.161-7.513,21.225T250.32,43.229q-12.248,0-19.723-8.064T223.123,13.939Zm72.539.152q0,7.76,3.69,12.419a12.584,12.584,0,0,0,19.552,0q3.69-4.66,3.69-12.419,0-8.026-3.652-12.743a12.568,12.568,0,0,0-19.628,0Q295.661,6.065,295.661,14.091Zm-13.732-.152q0-13.123,7.513-21.206t19.685-8.083q12.21,0,19.742,8.1T336.4,13.939q0,13.161-7.513,21.225t-19.761,8.064q-12.248,0-19.723-8.064T281.93,13.939Z" transform="translate(184.812 77.115)" stroke="rgba(0,0,0,0)" stroke-width="1"/>
      <g id="Asset_1" data-name="Asset 1" transform="translate(0)">
        <g id="Group_40215" data-name="Group 40215" transform="translate(0)">
          <g id="Layer_2" data-name="Layer 2">
            <g id="LOGO">
              <path id="Path_74075" data-name="Path 74075" d="M51.527,25.756V149.51A25.6,25.6,0,0,1,25.766,175.09,25.6,25.6,0,0,1,0,149.51V25.756a25.764,25.764,0,1,1,51.529,0Z" transform="translate(0 0.01)" fill="url(#linear-gradient)"/>
              <g id="Group_40204" data-name="Group 40204" transform="translate(0 78.037)">
                <path id="Path_74076" data-name="Path 74076" d="M0,256.114l51.523-49.5V184.44S5.5,226.761,0,235.044v21.069Z" transform="translate(0 -184.44)" opacity="0.4" fill="url(#linear-gradient-2)"/>
              </g>
              <path id="Path_74077" data-name="Path 74077" d="M258.363,318.271A25.761,25.761,0,1,1,232.6,292.51,25.761,25.761,0,0,1,258.363,318.271Z" transform="translate(-119.33 -168.751)" fill="url(#linear-gradient-3)"/>
              <path id="Path_74078" data-name="Path 74078" d="M132.51,129.654,45.022,217.159C34.961,227.22,20.2,225.667,10.139,215.6s-11.618-24.818-1.553-34.879L96.075,93.218a25.765,25.765,0,1,1,36.437,36.437Z" transform="translate(-1.021 -49.421)" fill="url(#linear-gradient-4)"/>
              <g id="Group_40207" data-name="Group 40207" transform="translate(85.851 36.249)" opacity="0.4" style="isolation: isolate">
                <path id="Path_74081" data-name="Path 74081" d="M212.122,93.218l-1.976,1.967s13.3,38.978-7.226,80.093l45.638-45.625a25.765,25.765,0,1,0-36.437-36.437Z" transform="translate(-202.92 -85.67)" opacity="0.6" fill="url(#linear-gradient-5)" style="mix-blend-mode: soft-light;isolation: isolate"/>
              </g>
              <g id="Group_40205" data-name="Group 40205" transform="translate(0 0.004)" opacity="0.4" style="isolation: isolate">
                <path id="Path_74079" data-name="Path 74079" d="M25.766,0A25.762,25.762,0,0,0,0,25.766V91.521c.059-.245,9.782-41.885,51.527-65.759A25.761,25.761,0,0,0,25.766,0Z" transform="translate(0 0)" opacity="0.5" fill="url(#linear-gradient-6)"/>
              </g>
              <g id="Group_40206" data-name="Group 40206" transform="translate(0 0.004)" opacity="0.47" style="isolation: isolate">
                <path id="Path_74080" data-name="Path 74080" d="M25.766,0A25.761,25.761,0,0,1,51.527,25.761V91.521C51.472,91.275,41.745,49.636,0,25.761A25.761,25.761,0,0,1,25.766,0Z" transform="translate(0 0)" fill="#fff" opacity="0.4"/>
              </g>
              <g id="Group_40208" data-name="Group 40208" transform="translate(49.424 36.25)" opacity="0.36" style="isolation: isolate">
                <path id="Path_74082" data-name="Path 74082" d="M198.885,129.654l-1.967,1.967s-38.983-13.3-80.1,7.222l45.629-45.625a25.765,25.765,0,1,1,36.437,36.437Z" transform="translate(-116.82 -85.67)" fill="#fff" opacity="0.64"/>
              </g>
              <g id="Group_40209" data-name="Group 40209" transform="translate(101.218 123.692)">
                <path id="Path_74083" data-name="Path 74083" d="M262.086,341.576a25.766,25.766,0,1,0-22.846-46.158C239.451,295.507,266.279,306.494,262.086,341.576Z" transform="translate(-239.24 -292.351)" opacity="0.25" fill="url(#linear-gradient-7)"/>
              </g>
              <g id="Group_40210" data-name="Group 40210" transform="translate(91.026 123.756)" opacity="0.34" style="isolation: isolate">
                <path id="Path_74084" data-name="Path 74084" d="M263.085,320.115c.042-.609.072-1.227.072-1.849a25.761,25.761,0,0,0-48.007-12.993C215.421,305.252,241.829,302.993,263.085,320.115Z" transform="translate(-215.15 -292.501)" opacity="0.4" fill="url(#linear-gradient-8)"/>
              </g>
              <g id="Group_40211" data-name="Group 40211" transform="translate(87.511 136.528)">
                <path id="Path_74085" data-name="Path 74085" d="M244.669,358.449c-31.054-9.177-34.312-35.759-34.312-35.759h0a25.766,25.766,0,0,0,34.312,35.759Z" transform="translate(-206.843 -322.69)" fill="#cb4338"/>
              </g>
              <path id="Path_74086" data-name="Path 74086" d="M7.553,250.369A25.77,25.77,0,1,0,44.006,286.8l7.544-7.544V206.39Z" transform="translate(-0.006 -119.066)" fill="url(#linear-gradient-9)"/>
            </g>
          </g>
        </g>
      </g>
    </g>
  </g>
</svg>
